<?xml version="1.0" standalone="no"?>
<!DOCTYPE svg PUBLIC "-//W3C//DTD SVG 20010904//EN"
 "http://www.w3.org/TR/2001/REC-SVG-20010904/DTD/svg10.dtd">
<svg version="1.0" xmlns="http://www.w3.org/2000/svg"
 width="512.000000pt" height="512.000000pt" viewBox="0 0 512.000000 512.000000"
 preserveAspectRatio="xMidYMid meet">
<metadata>
Created by potrace 1.14, written by Peter Selinger 2001-2017
</metadata>
<g transform="translate(0.000000,512.000000) scale(0.100000,-0.100000)"
fill="#000000" stroke="none">
<path d="M2397 5104 c-176 -34 -340 -125 -467 -261 -352 -373 -300 -968 112
-1283 l45 -35 -1 -185 -1 -185 -235 -5 -236 -5 1 -310 0 -310 237 -3 236 -2 0
-709 -1 -710 -70 5 c-73 4 -83 6 -176 24 -134 27 -308 109 -437 205 -73 55
-212 189 -272 264 -100 124 -223 336 -290 501 -46 111 -50 104 51 103 48 -1
87 2 87 6 0 10 -379 616 -388 619 -6 2 -392 -607 -392 -620 0 -3 28 -5 63 -4
96 3 92 6 91 -86 -2 -289 111 -669 280 -948 264 -432 697 -770 1256 -978 139
-52 392 -132 460 -146 14 -3 34 -7 45 -10 11 -2 57 -12 102 -21 l81 -16 169
41 c906 224 1508 646 1824 1281 116 234 199 568 199 805 l0 74 53 1 c28 1 62
0 75 -1 12 -1 22 2 22 7 0 12 -379 617 -389 621 -8 3 -383 -589 -389 -614 -2
-9 18 -12 77 -11 45 0 84 -2 87 -6 9 -9 -27 -98 -96 -239 -215 -437 -546 -733
-920 -823 -84 -20 -240 -31 -249 -17 -3 5 -6 322 -6 704 l0 693 237 3 237 2 0
315 -1 315 -236 2 -236 3 -1 180 -1 180 45 40 c198 176 288 322 336 550 4 17
8 75 10 130 12 393 -249 743 -637 856 -90 26 -289 33 -391 13z m301 -486 c67
-25 127 -71 174 -133 54 -72 73 -133 73 -240 0 -82 -3 -97 -33 -157 -119 -243
-430 -301 -622 -116 -159 153 -161 409 -3 559 117 112 262 142 411 87z"/>
</g>
</svg>
